<svg xmlns="http://www.w3.org/2000/svg" fill="none" viewBox="0 0 182 23">
  <path fill="#D50C2D" d="M174.05 14.12c1.651-.2852 3.207-.9721 4.53-2 .603-.6317 1.065-1.3847 1.355-2.20896.29-.82421.401-1.70068.325-2.57104.005-1.43298-.39-2.8389-1.14-4.06-.545-.92925-1.313-1.70772-2.235-2.26478-.922-.557066-1.969-.875091-3.045-.92522h-1.09L170.2 0h-11.54c-.7 0-1 .29-1 1v20.22c0 .7.29 1 1 1h3c.7 0 1-.29 1-1v-6.7h3.67c.807.0422 1.574.3639 2.17.91l5.82 5.85c.531.5426 1.243.8702 2 .92h4.47c.7 0 .87-.41.38-.91l-7.12-7.17zm-.76-4.3h-10.65v-5.1h10.65c.522.06415 1.002.31929 1.347.71626.346.39698.532.90769.523 1.43374v.79c.009.52716-.177 1.03914-.522 1.43776-.345.39861-.825.6558-1.348.72224zM153 17.52h-16.53v-4.17h13.19c.7 0 1-.29 1-1V9.92c0-.7-.29-1-1-1h-13.2V4.76H153c.7 0 1-.29 1-1V1c0-.7-.29-1-1-1h-20.62c-.7 0-1 .29-1 1v20.24c0 .7.29 1 1 1H153c.7 0 1-.29 1-1v-2.73c0-.7-.33-.99-1-.99zM127.73 7.3c.022-1.41504-.371-2.80553-1.13-4-.549-.9523-1.326-1.75276-2.262-2.328961C123.402.39484 122.337.0610938 121.24 0h-15.16c-.71 0-1 .29-1 1v20.22c0 .7.29 1 1 1h3.26c.7 0 1-.28 1-1V4.73h8.78c1.87 0 3.69 1.24 3.69 3.11v13.4c0 .7.29 1 1 1h2.95c.71 0 1-.29 1-1l-.03-13.94zM100.47 17.39H86.22L100.5 4.84c.287-.21932.524-.4965.696-.81352.172-.31702.276-.66677.304-1.02648V1c0-.7-.3-1-1-1H79.83c-.7 0-1 .29-1 1v2.77c0 .7.29 1 1 1h13.25L79.79 17.24c-.2843.2214-.5198.4991-.6918.8157-.1721.3166-.277.6653-.3082 1.0243v2.17c0 .7.29 1 1 1h20.65c.7 0 1-.29 1-1v-2.87c.02-.7-.27-.99-.97-.99zM74.19 0H53.55c-.71 0-1 .28-1 1v2.76c0 .7.28 1 1 1h7.78v16.48c0 .7.29 1 1 1h3.3c.7 0 1-.29 1-1V4.75h7.57c.7 0 1-.29 1-1V1c-.02-.68-.31-1-1.01-1zM47.91 17.52h-16.5v-4.17H44.6c.7 0 1-.29 1-1V9.92c0-.7-.28-1-1-1H31.41V4.76h16.5c.7 0 1-.29 1-1V1c0-.7-.29-1-1-1H27.33c-.7 0-1 .29-1 1v20.24c0 .7.29 1 1 1h20.58c.7 0 1-.29 1-1v-2.73c-.01-.7-.3-.99-1-.99zM21.63 0h-3.11c-.7 0-1 .29-1 1v7.87H5.13V1c0-.7-.29-1-1-1H1C.29 0 0 .29 0 1v20.25c0 .71.29 1 1 1h3.13c.7 0 1-.28 1-1v-8h12.4v8c0 .7.29 1 1 1h3.11c.7 0 1-.29 1-1V1c-.02-.68-.31-1-1.01-1z"/>
</svg>
